# xmcd CD database file
#
# Track frame offsets:
#	150
#	2877
#	4342
#	9857
#	21297
#	29787
#	35327
#	48217
#	51825
#	60830
#	66152
#	75320
#	87970
#	99170
#	104470
#	107942
#	117952
#	139590
#	151837
#	173522
#	180082
#	181047
#	193725
#	202342
#	203632
#	215997
#	217442
#	227400
#	232970
#	238205
#	243992
#	254900
#	257002
#	265845
#	267617
#	276895
#	285615
#	296060
#	298247
#
# Disc length: 4040 seconds
#
# Revision: 0
# Processed by: cddbd v1.5.2PL0 Copyright (c) Steve Scherf et al.
# Submitted via: CDex 1.50
#
DISCID=3e0fc627
DTITLE=Jean Derome - 3 Musiques pour UBU [CD2 - Les Ubs - Luna-Park)
DYEAR=1900
DGENRE=Jazz
TTITLE0=Les trois coups
TTITLE1=Il arrive!
TTITLE2=Ouverture à la française
TTITLE3=Craignez et redoutez le ma[itre des Phynances
TTITLE4=La crypte
TTITLE5=Danse villageoise
TTITLE6=Le bal
TTITLE7=Le menuet de Vanceslas
TTITLE8=L'hymne des Palotins
TTITLE9=Le menuet du Czar
TTITLE10=La sarabande des rats
TTITLE11=La marche des Polonais (chanson de route)
TTITLE12=Chanson polonaise
TTITLE13=L'armée russe
TTITLE14=Marécages
TTITLE15=La trappe
TTITLE16=Chanson du décervelage
TTITLE17=Vers les rives de France
TTITLE18=La boîte de fer/Madame Lenin
TTITLE19=Marche funèbre (Mondarbours I)
TTITLE20=Odessa (Le nuage en Pantalon I)
TTITLE21=Ouverture de la victoire sur le soleil
TTITLE22=Le moisi des naïades dodues/La sauterelle/Je mange un chien/Vite le tempêtomêtre
TTITLE23=Celui-là (Nuage II)
TTITLE24=Pluie, pullule la toupie/Domaine Tchekov/Mondarbours II
TTITLE25=Maria (Nuage III)
TTITLE26=Que les chevaux chauffés à blanc piétinent/Le monde des fleurs n'est déjà plus
TTITLE27=La mort future
TTITLE28=Le boiteux
TTITLE29=Sur mon visage... (Nuage IV)/Les ténèbres ont tout envahi
TTITLE30=Loulla/Mandarbours III
TTITLE31=L'univers dort (Nuage V)
TTITLE32=Le berceau du navet sanguinaire
TTITLE33=Injuriant (Nuage VI)
TTITLE34=Nous sommes libres le soleil est brisé/Mandarbours IV
TTITLE35=Timidité de se tirer une balle/Le volcan/L'horloge géante et folle/Sur les vitres (Nuage VII)
TTITLE36=Rengaine de mauvais goût/Chanson des sportifs
TTITLE37=Mandarbours V
TTITLE38=Le monde périra mais nous n'aurons pas de fin
EXTD=
EXTT0=
EXTT1=
EXTT2=
EXTT3=
EXTT4=
EXTT5=
EXTT6=
EXTT7=
EXTT8=
EXTT9=
EXTT10=
EXTT11=
EXTT12=
EXTT13=
EXTT14=
EXTT15=
EXTT16=
EXTT17=
EXTT18=
EXTT19=
EXTT20=
EXTT21=
EXTT22=
EXTT23=
EXTT24=
EXTT25=
EXTT26=
EXTT27=
EXTT28=
EXTT29=
EXTT30=
EXTT31=
EXTT32=
EXTT33=
EXTT34=
EXTT35=
EXTT36=
EXTT37=
EXTT38=
PLAYORDER=
